<svg xmlns:figma="http://www.figma.com/figma/ns" xmlns="http://www.w3.org/2000/svg" xmlns:xlink="http://www.w3.org/1999/xlink" width="192" height="192" viewBox="0 0 192 192"><title>Icon</title><desc>Created using Figma</desc><g mask="url(#a)" figma:type="vector" filter="url(#b)" transform="translate(96 96)"><use xlink:href="#c" transform="translate(-88 -76)" width="100%" height="100%" fill="#ff9800"/></g><g mask="url(#a)" figma:type="frame" transform="translate(96 96)"><use xlink:href="#e" transform="translate(-88 37)" width="100%" height="100%" fill="#f57c00" figma:type="vector" filter="url(#d)"/><use xlink:href="#g" transform="translate(-96)" width="100%" height="100%" fill="#ff9800" figma:type="vector" filter="url(#f)"/><use xlink:href="#i" transform="translate(-98 -38)" width="100%" height="100%" fill="#ffb300" figma:type="vector" filter="url(#h)"/><use xlink:href="#k" transform="translate(-88 -76)" width="100%" height="100%" fill="#ffca28" figma:type="vector" filter="url(#j)"/></g><g mask="url(#a)" figma:type="vector-operation" opacity=".7" transform="translate(96 96)"><use xlink:href="#l" transform="translate(-56 -42)" width="100%" height="100%" fill="#4f3737"/></g><g mask="url(#a)" figma:type="vector-operation" opacity=".2" transform="translate(96 96)"><use xlink:href="#m" transform="translate(-40 -56)" width="100%" height="100%" fill="url(#n)"/></g><g mask="url(#a)" figma:type="vector-operation" filter="url(#o)" transform="translate(96 96)"><use xlink:href="#p" transform="translate(-41 -57)" width="100%" height="100%" fill="#f5f5f5"/></g><g mask="url(#a)" figma:type="vector" filter="url(#q)" transform="translate(96 96)"><use xlink:href="#r" transform="translate(-91.149 -76)" width="100%" height="100%" fill="url(#s)" fill-opacity=".2"/></g><defs><filter id="b" filterUnits="userSpaceOnUse" x="-89" y="-76" width="178" height="152" color-interpolation-filters="sRGB"><feFlood flood-opacity="0" result="BackgroundImageFix"/><feBlend in="SourceGraphic" in2="BackgroundImageFix" result="shape"/><desc>type=&quot;innerShadow&quot; x=&quot;0&quot; y=&quot;1&quot; size=&quot;0&quot; spread=&quot;0&quot; color=&quot;1,1,1,0.2&quot; blend=&quot;normal&quot;</desc><feColorMatrix in="SourceAlpha" values="0 0 0 0 0 0 0 0 0 0 0 0 0 0 0 0 0 0 255 0" result="hardAlpha"/><feOffset dy="1"/><feComposite in2="hardAlpha" operator="arithmetic" k2="-1" k3="1"/><feColorMatrix values="0 0 0 0 1 0 0 0 0 1 0 0 0 0 1 0 0 0 0.2 0"/><feBlend in2="shape" result="effect1_innerShadow"/><desc>type=&quot;innerShadow&quot; x=&quot;0&quot; y=&quot;-1&quot; size=&quot;0&quot; spread=&quot;0&quot; color=&quot;0.74902,0.211765,0.0470588,0.2&quot; blend=&quot;normal&quot;</desc><feColorMatrix in="SourceAlpha" values="0 0 0 0 0 0 0 0 0 0 0 0 0 0 0 0 0 0 255 0" result="hardAlpha"/><feOffset dy="-1"/><feComposite in2="hardAlpha" operator="arithmetic" k2="-1" k3="1"/><feColorMatrix values="0 0 0 0 0.74902 0 0 0 0 0.211765 0 0 0 0 0.0470588 0 0 0 0.2 0"/><feBlend in2="effect1_innerShadow" result="effect2_innerShadow"/></filter><filter id="d" filterUnits="userSpaceOnUse" x="-89" y="37" width="178" height="39" color-interpolation-filters="sRGB"><feFlood flood-opacity="0" result="BackgroundImageFix"/><desc>type=&quot;dropShadow&quot; x=&quot;0&quot; y=&quot;4&quot; size=&quot;4&quot; spread=&quot;0&quot; color=&quot;0.74902,0.211765,0.0470588,0.2&quot; blend=&quot;normal&quot;</desc><feColorMatrix in="SourceAlpha" values="0 0 0 0 0 0 0 0 0 0 0 0 0 0 0 0 0 0 255 0"/><feOffset dy="4"/><feGaussianBlur stdDeviation="2"/><feColorMatrix values="0 0 0 0 0.74902 0 0 0 0 0.211765 0 0 0 0 0.0470588 0 0 0 0.2 0"/><feBlend in2="BackgroundImageFix" result="effect1_dropShadow"/><desc>type=&quot;dropShadow&quot; x=&quot;0&quot; y=&quot;1&quot; size=&quot;0&quot; spread=&quot;0&quot; color=&quot;0.74902,0.211765,0.0470588,0.05&quot; blend=&quot;normal&quot;</desc><feColorMatrix in="SourceAlpha" values="0 0 0 0 0 0 0 0 0 0 0 0 0 0 0 0 0 0 255 0"/><feOffset dy="1"/><feColorMatrix values="0 0 0 0 0.74902 0 0 0 0 0.211765 0 0 0 0 0.0470588 0 0 0 0.05 0"/><feBlend in2="effect1_dropShadow" result="effect2_dropShadow"/><feBlend in="SourceGraphic" in2="effect2_dropShadow" result="shape"/></filter><filter id="f" filterUnits="userSpaceOnUse" x="-89" y="0" width="178" height="46" color-interpolation-filters="sRGB"><feFlood flood-opacity="0" result="BackgroundImageFix"/><desc>type=&quot;dropShadow&quot; x=&quot;0&quot; y=&quot;4&quot; size=&quot;4&quot; spread=&quot;0&quot; color=&quot;0.74902,0.211765,0.0470588,0.2&quot; blend=&quot;normal&quot;</desc><feColorMatrix in="SourceAlpha" values="0 0 0 0 0 0 0 0 0 0 0 0 0 0 0 0 0 0 255 0"/><feOffset dy="4"/><feGaussianBlur stdDeviation="2"/><feColorMatrix values="0 0 0 0 0.74902 0 0 0 0 0.211765 0 0 0 0 0.0470588 0 0 0 0.2 0"/><feBlend in2="BackgroundImageFix" result="effect1_dropShadow"/><desc>type=&quot;dropShadow&quot; x=&quot;0&quot; y=&quot;1&quot; size=&quot;0&quot; spread=&quot;0&quot; color=&quot;0.74902,0.211765,0.0470588,0.05&quot; blend=&quot;normal&quot;</desc><feColorMatrix in="SourceAlpha" values="0 0 0 0 0 0 0 0 0 0 0 0 0 0 0 0 0 0 255 0"/><feOffset dy="1"/><feColorMatrix values="0 0 0 0 0.74902 0 0 0 0 0.211765 0 0 0 0 0.0470588 0 0 0 0.05 0"/><feBlend in2="effect1_dropShadow" result="effect2_dropShadow"/><feBlend in="SourceGraphic" in2="effect2_dropShadow" result="shape"/></filter><filter id="h" filterUnits="userSpaceOnUse" x="-89" y="-38" width="178" height="46" color-interpolation-filters="sRGB"><feFlood flood-opacity="0" result="BackgroundImageFix"/><desc>type=&quot;dropShadow&quot; x=&quot;0&quot; y=&quot;4&quot; size=&quot;4&quot; spread=&quot;0&quot; color=&quot;0.74902,0.211765,0.0470588,0.2&quot; blend=&quot;normal&quot;</desc><feColorMatrix in="SourceAlpha" values="0 0 0 0 0 0 0 0 0 0 0 0 0 0 0 0 0 0 255 0"/><feOffset dy="4"/><feGaussianBlur stdDeviation="2"/><feColorMatrix values="0 0 0 0 0.74902 0 0 0 0 0.211765 0 0 0 0 0.0470588 0 0 0 0.2 0"/><feBlend in2="BackgroundImageFix" result="effect1_dropShadow"/><desc>type=&quot;dropShadow&quot; x=&quot;0&quot; y=&quot;1&quot; size=&quot;0&quot; spread=&quot;0&quot; color=&quot;0.74902,0.211765,0.0470588,0.05&quot; blend=&quot;normal&quot;</desc><feColorMatrix in="SourceAlpha" values="0 0 0 0 0 0 0 0 0 0 0 0 0 0 0 0 0 0 255 0"/><feOffset dy="1"/><feColorMatrix values="0 0 0 0 0.74902 0 0 0 0 0.211765 0 0 0 0 0.0470588 0 0 0 0.05 0"/><feBlend in2="effect1_dropShadow" result="effect2_dropShadow"/><feBlend in="SourceGraphic" in2="effect2_dropShadow" result="shape"/></filter><filter id="j" filterUnits="userSpaceOnUse" x="-89" y="-76" width="178" height="46" color-interpolation-filters="sRGB"><feFlood flood-opacity="0" result="BackgroundImageFix"/><desc>type=&quot;dropShadow&quot; x=&quot;0&quot; y=&quot;4&quot; size=&quot;4&quot; spread=&quot;0&quot; color=&quot;0.74902,0.211765,0.0470588,0.2&quot; blend=&quot;normal&quot;</desc><feColorMatrix in="SourceAlpha" values="0 0 0 0 0 0 0 0 0 0 0 0 0 0 0 0 0 0 255 0"/><feOffset dy="4"/><feGaussianBlur stdDeviation="2"/><feColorMatrix values="0 0 0 0 0.74902 0 0 0 0 0.211765 0 0 0 0 0.0470588 0 0 0 0.2 0"/><feBlend in2="BackgroundImageFix" result="effect1_dropShadow"/><desc>type=&quot;dropShadow&quot; x=&quot;0&quot; y=&quot;1&quot; size=&quot;0&quot; spread=&quot;0&quot; color=&quot;0.74902,0.211765,0.0470588,0.05&quot; blend=&quot;normal&quot;</desc><feColorMatrix in="SourceAlpha" values="0 0 0 0 0 0 0 0 0 0 0 0 0 0 0 0 0 0 255 0"/><feOffset dy="1"/><feColorMatrix values="0 0 0 0 0.74902 0 0 0 0 0.211765 0 0 0 0 0.0470588 0 0 0 0.05 0"/><feBlend in2="effect1_dropShadow" result="effect2_dropShadow"/><feBlend in="SourceGraphic" in2="effect2_dropShadow" result="shape"/></filter><filter id="o" filterUnits="userSpaceOnUse" x="-43" y="-57" width="78" height="122" color-interpolation-filters="sRGB"><feFlood flood-opacity="0" result="BackgroundImageFix"/><desc>type=&quot;dropShadow&quot; x=&quot;2&quot; y=&quot;4&quot; size=&quot;4&quot; spread=&quot;0&quot; color=&quot;0.74902,0.211765,0.0470588,0.2&quot; blend=&quot;normal&quot;</desc><feColorMatrix in="SourceAlpha" values="0 0 0 0 0 0 0 0 0 0 0 0 0 0 0 0 0 0 255 0"/><feOffset dx="2" dy="4"/><feGaussianBlur stdDeviation="2"/><feColorMatrix values="0 0 0 0 0.74902 0 0 0 0 0.211765 0 0 0 0 0.0470588 0 0 0 0.2 0"/><feBlend in2="BackgroundImageFix" result="effect1_dropShadow"/><desc>type=&quot;dropShadow&quot; x=&quot;0&quot; y=&quot;1&quot; size=&quot;0&quot; spread=&quot;0&quot; color=&quot;0.74902,0.211765,0.0470588,0.2&quot; blend=&quot;normal&quot;</desc><feColorMatrix in="SourceAlpha" values="0 0 0 0 0 0 0 0 0 0 0 0 0 0 0 0 0 0 255 0"/><feOffset dy="1"/><feColorMatrix values="0 0 0 0 0.74902 0 0 0 0 0.211765 0 0 0 0 0.0470588 0 0 0 0.2 0"/><feBlend in2="effect1_dropShadow" result="effect2_dropShadow"/><feBlend in="SourceGraphic" in2="effect2_dropShadow" result="shape"/><desc>type=&quot;innerShadow&quot; x=&quot;0&quot; y=&quot;1&quot; size=&quot;0&quot; spread=&quot;0&quot; color=&quot;1,1,1,1&quot; blend=&quot;normal&quot;</desc><feColorMatrix in="SourceAlpha" values="0 0 0 0 0 0 0 0 0 0 0 0 0 0 0 0 0 0 255 0" result="hardAlpha"/><feOffset dy="1"/><feComposite in2="hardAlpha" operator="arithmetic" k2="-1" k3="1"/><feColorMatrix values="0 0 0 0 1 0 0 0 0 1 0 0 0 0 1 0 0 0 1 0"/><feBlend in2="shape" result="effect3_innerShadow"/></filter><filter id="q" filterUnits="userSpaceOnUse" x="-89" y="-76" width="178" height="152" color-interpolation-filters="sRGB"><feFlood flood-opacity="0" result="BackgroundImageFix"/><feBlend in="SourceGraphic" in2="BackgroundImageFix" result="shape"/><desc>type=&quot;innerShadow&quot; x=&quot;0&quot; y=&quot;-1&quot; size=&quot;0&quot; spread=&quot;0&quot; color=&quot;0,0,0,0.2&quot; blend=&quot;normal&quot;</desc><feColorMatrix in="SourceAlpha" values="0 0 0 0 0 0 0 0 0 0 0 0 0 0 0 0 0 0 255 0" result="hardAlpha"/><feOffset dy="-1"/><feComposite in2="hardAlpha" operator="arithmetic" k2="-1" k3="1"/><feColorMatrix values="0 0 0 0 0 0 0 0 0 0 0 0 0 0 0 0 0 0 0.2 0"/><feBlend in2="shape" result="effect1_innerShadow"/><desc>type=&quot;innerShadow&quot; x=&quot;0&quot; y=&quot;1&quot; size=&quot;0&quot; spread=&quot;0&quot; color=&quot;1,1,1,0.3&quot; blend=&quot;normal&quot;</desc><feColorMatrix in="SourceAlpha" values="0 0 0 0 0 0 0 0 0 0 0 0 0 0 0 0 0 0 255 0" result="hardAlpha"/><feOffset dy="1"/><feComposite in2="hardAlpha" operator="arithmetic" k2="-1" k3="1"/><feColorMatrix values="0 0 0 0 1 0 0 0 0 1 0 0 0 0 1 0 0 0 0.3 0"/><feBlend in2="effect1_innerShadow" result="effect2_innerShadow"/></filter><linearGradient id="n" x2="1" gradientUnits="userSpaceOnUse" gradientTransform="matrix(-74.8789 -93.1133 90.9971 -76.6203 85.07 114.066)"><stop offset="0" stop-color="#BF360C" stop-opacity=".01"/><stop offset="1" stop-color="#BF360C"/></linearGradient><radialGradient id="s" cx=".5" cy=".5" r=".5" gradientUnits="userSpaceOnUse" gradientTransform="matrix(352 304 -352 304 3.149 -304)"><stop offset="0" stop-color="#FFF"/><stop offset="1" stop-color="#FFF" stop-opacity=".01"/></radialGradient><path id="c" fill-rule="evenodd" d="M174.215 85.852a22.003 22.003 0 0 0 0-19.704l-27.044-54A22 22 0 0 0 127.5 0h-79a22 22 0 0 0-19.67 12.148l-27.045 54a22 22 0 0 0 0 19.704l27.044 54A22 22 0 0 0 48.5 152h79a22 22 0 0 0 19.671-12.148l27.044-54z"/><path id="e" fill-rule="evenodd" d="M0 0h176v39H0V0z"/><path id="g" fill-rule="evenodd" d="M0 0h192v38H0V0z"/><path id="i" fill-rule="evenodd" d="M0 0h194v38H0V0z"/><path id="k" fill-rule="evenodd" d="M0 0h176v38H0V0z"/><path id="l" fill-rule="evenodd" d="M112 2a2 2 0 0 0-2-2H2a2 2 0 0 0-2 2v5a2 2 0 0 0 2 2h108a2 2 0 0 0 2-2V2zm0 76a2 2 0 0 0-2-2H2a2 2 0 0 0-2 2v5a2 2 0 0 0 2 2h108a2 2 0 0 0 2-2v-5zm-2-40a2 2 0 0 1 2 2v5a2 2 0 0 1-2 2H2a2 2 0 0 1-2-2v-5a2 2 0 0 1 2-2h108z"/><path id="m" fill-rule="evenodd" d="M112 95L54 37 69 0l60 60-17 35zm-55 37L0 75l15-37 94 94H57z"/><path id="p" fill-rule="evenodd" d="M70 36a2 2 0 0 1-2 2H56a2 2 0 0 1-2-2V2a2 2 0 0 1 2-2h12a2 2 0 0 1 2 2v34zM0 74a2 2 0 0 0 2 2h12a2 2 0 0 0 2-2V40a2 2 0 0 0-2-2H2a2 2 0 0 0-2 2v34zm54 4a2 2 0 0 0-2-2H40a2 2 0 0 0-2 2v34a2 2 0 0 0 2 2h12a2 2 0 0 0 2-2V78z"/><path id="r" fill-rule="evenodd" d="M177.364 85.852a22.003 22.003 0 0 0 0-19.704l-27.044-54A22 22 0 0 0 130.649 0h-79a22 22 0 0 0-19.671 12.148l-27.044 54a22 22 0 0 0 0 19.704l27.044 54A22 22 0 0 0 51.649 152h79a22 22 0 0 0 19.671-12.148l27.044-54z"/><mask id="a"><use height="100%" width="100%" transform="translate(-88 -76)" xlink:href="#c" fill="#ff9800" figma:type="vector"/></mask></defs></svg>